<?xml version="1.0" encoding="UTF-8"?>
<svg width="551px" height="111px" viewBox="0 0 551 111" version="1.1" xmlns="http://www.w3.org/2000/svg" xmlns:xlink="http://www.w3.org/1999/xlink">
    <!-- Generator: Sketch 57.1 (83088) - https://sketch.com -->
    <title>Group 3</title>
    <desc>Created with Sketch.</desc>
    <defs>
        <linearGradient x1="0%" y1="11.5553267%" x2="59.4570312%" y2="58.3386897%" id="linearGradient-1">
            <stop stop-color="#C1B7FF" offset="0%"></stop>
            <stop stop-color="#8D81FF" offset="100%"></stop>
        </linearGradient>
        <path d="M15.7933867,9.45651754 L109.852957,7.15069184 C113.16567,7.06948225 115.916988,9.68913355 115.998198,13.0018468 C115.999399,13.0508519 116,13.0998699 116,13.1488898 L116,93.6811405 C116,96.994849 113.313708,99.6811405 110,99.6811405 C109.896482,99.6811405 109.792981,99.6784615 109.689602,99.6731062 L15.6300315,94.8005944 C12.441231,94.6354069 9.94042969,92.0017048 9.94042969,88.8086287 L9.94042969,15.4547155 C9.94042969,12.1982919 12.5379412,9.53632324 15.7933867,9.45651754 Z" id="path-2"></path>
        <filter x="-6.6%" y="-5.2%" width="113.2%" height="114.6%" filterUnits="objectBoundingBox" id="filter-3">
            <feOffset dx="0" dy="2" in="SourceAlpha" result="shadowOffsetOuter1"></feOffset>
            <feGaussianBlur stdDeviation="2" in="shadowOffsetOuter1" result="shadowBlurOuter1"></feGaussianBlur>
            <feColorMatrix values="0 0 0 0 0   0 0 0 0 0   0 0 0 0 0  0 0 0 0.3 0" type="matrix" in="shadowBlurOuter1"></feColorMatrix>
        </filter>
        <path d="M101.9,0 C111.35,0 116.15,5.85 116.9,16.05 L117.95,36.45 C118.4,43.8 119.6,46.95 126.95,47.55 L126.95,57.45 C119.6,58.05 118.4,61.2 117.95,68.55 L116.9,88.95 C116.15,99.15 111.35,105 101.9,105 L95,105 L94.999,104.999 L31.949,104.999 L31.95,105 L25.05,105 C15.6,105 10.8,99.15 10.05,88.95 L9,68.55 C8.55,61.2 7.35,58.05 -1.0658141e-13,57.45 L-1.0658141e-13,47.55 C7.35,46.95 8.55,43.8 9,36.45 L10.05,16.05 C10.8,5.85 15.6,0 25.05,0 L101.9,0 Z M95,9.6 L94.999,9.599 L31.949,9.599 L31.95,9.6 L29.1,9.6 C22.8,9.6 21,13.2 20.55,21.15 L19.65,38.1 C19.35,44.4 17.85,50.4 9.9,52.5 C17.85,54.6 19.35,60.6 19.65,66.9 L20.55,83.85 C21,91.8 22.8,95.4 29.1,95.4 L31,95.4 L97.85,95.4 C104.15,95.4 105.95,91.8 106.4,83.85 L107.3,66.9 C107.6,60.6 109.1,54.6 117.05,52.5 C109.1,50.4 107.6,44.4 107.3,38.1 L106.4,21.15 C105.95,13.2 104.15,9.6 97.85,9.6 L95,9.6 Z" id="path-4"></path>
        <filter x="-3.2%" y="-3.8%" width="107.9%" height="109.5%" filterUnits="objectBoundingBox" id="filter-5">
            <feOffset dx="1" dy="1" in="SourceAlpha" result="shadowOffsetOuter1"></feOffset>
            <feGaussianBlur stdDeviation="1.5" in="shadowOffsetOuter1" result="shadowBlurOuter1"></feGaussianBlur>
            <feColorMatrix values="0 0 0 0 0   0 0 0 0 0   0 0 0 0 0  0 0 0 0.231452142 0" type="matrix" in="shadowBlurOuter1"></feColorMatrix>
        </filter>
        <path d="M63.48,24 C72.6,24 76.52,28.24 76.52,36.88 L76.52,38.88 C76.52,44.64 74.76,48.32 70.84,50.16 C75.56,52 77.4,56.24 77.4,62.16 L77.4,66.72 C77.4,75.36 72.84,80 64.04,80 L50.2,80 L50.2,24 L63.48,24 Z M62.92,54.8 L59,54.8 L59,72 L64.04,72 C67,72 68.6,70.64 68.6,66.48 L68.6,61.6 C68.6,56.4 66.92,54.8 62.92,54.8 Z M63.24,32 L59,32 L59,46.8 L62.44,46.8 C65.72,46.8 67.72,45.36 67.72,40.88 L67.72,37.76 C67.72,33.76 66.36,32 63.24,32 Z" id="path-6"></path>
        <filter x="-20.2%" y="-9.8%" width="147.8%" height="123.2%" filterUnits="objectBoundingBox" id="filter-7">
            <feOffset dx="1" dy="1" in="SourceAlpha" result="shadowOffsetOuter1"></feOffset>
            <feGaussianBlur stdDeviation="2" in="shadowOffsetOuter1" result="shadowBlurOuter1"></feGaussianBlur>
            <feColorMatrix values="0 0 0 0 0   0 0 0 0 0   0 0 0 0 0  0 0 0 0.205720061 0" type="matrix" in="shadowBlurOuter1"></feColorMatrix>
        </filter>
        <path d="M153.2,25 L165.76,25 C174.48,25 177.92,29.16 177.92,37.4 L177.92,40.04 C177.92,45.96 176.24,49.64 171.36,51.16 C176.8,52.68 178.88,57 178.88,63.16 L178.88,67.88 C178.88,76.28 174.8,81 166.08,81 L153.2,81 L153.2,25 Z M159.44,48.76 L164.24,48.76 C169.2,48.76 171.76,47.16 171.76,41.32 L171.76,38.04 C171.76,33.08 170.08,30.68 165.6,30.68 L159.44,30.68 L159.44,48.76 Z M159.44,75.32 L166.08,75.32 C170.64,75.32 172.72,72.92 172.72,67.72 L172.72,62.76 C172.72,56.52 170.24,54.44 164.88,54.44 L159.44,54.44 L159.44,75.32 Z M184.56,25 L197.04,25 C205.84,25 209.52,29.48 209.52,37.8 L209.52,42.36 C209.52,48.52 207.36,52.36 202.56,53.88 C207.68,55.4 209.6,59.56 209.6,65.56 L209.6,74.28 C209.6,76.76 209.68,79.08 210.72,81 L204.4,81 C203.68,79.4 203.36,77.96 203.36,74.2 L203.36,65.4 C203.36,59.08 200.4,57.08 195.2,57.08 L190.8,57.08 L190.8,81 L184.56,81 L184.56,25 Z M190.8,51.4 L195.44,51.4 C200.4,51.4 203.36,49.8 203.36,43.72 L203.36,38.36 C203.36,33.32 201.52,30.68 196.88,30.68 L190.8,30.68 L190.8,51.4 Z M236.56,69.72 L222.4,69.72 L220.24,81 L214.48,81 L225.2,25 L234.24,25 L244.96,81 L238.72,81 L236.56,69.72 Z M229.36,32.04 L223.2,64.36 L235.68,64.36 L229.36,32.04 Z M255.36,35.72 L255.36,81 L249.76,81 L249.76,25 L257.68,25 L270.64,65.48 L270.64,25 L276.16,25 L276.16,81 L269.68,81 L255.36,35.72 Z M282.56,25 L295.68,25 C304.4,25 308.4,30.28 308.4,38.92 L308.4,67.16 C308.4,75.72 304.4,81 295.68,81 L282.56,81 L282.56,25 Z M288.8,75.32 L295.6,75.32 C300.08,75.32 302.24,72.52 302.24,67.4 L302.24,38.6 C302.24,33.48 300.08,30.68 295.52,30.68 L288.8,30.68 L288.8,75.32 Z M313.76,67.48 L313.76,38.52 C313.76,29.96 318,24.44 326.56,24.44 C335.2,24.44 339.44,29.96 339.44,38.52 L339.44,67.48 C339.44,75.96 335.2,81.56 326.56,81.56 C318,81.56 313.76,75.96 313.76,67.48 Z M319.92,38.2 L319.92,67.8 C319.92,72.92 322.08,75.88 326.56,75.88 C331.12,75.88 333.2,72.92 333.2,67.8 L333.2,38.2 C333.2,33.16 331.12,30.12 326.56,30.12 C322.08,30.12 319.92,33.16 319.92,38.2 Z M350.88,35.72 L350.88,81 L345.28,81 L345.28,25 L353.2,25 L366.16,65.48 L366.16,25 L371.68,25 L371.68,81 L365.2,81 L350.88,35.72 Z M390.48,25 L403.04,25 C411.76,25 415.2,29.16 415.2,37.4 L415.2,40.04 C415.2,45.96 413.52,49.64 408.64,51.16 C414.08,52.68 416.16,57 416.16,63.16 L416.16,67.88 C416.16,76.28 412.08,81 403.36,81 L390.48,81 L390.48,25 Z M396.72,48.76 L401.52,48.76 C406.48,48.76 409.04,47.16 409.04,41.32 L409.04,38.04 C409.04,33.08 407.36,30.68 402.88,30.68 L396.72,30.68 L396.72,48.76 Z M396.72,75.32 L403.36,75.32 C407.92,75.32 410,72.92 410,67.72 L410,62.76 C410,56.52 407.52,54.44 402.16,54.44 L396.72,54.44 L396.72,75.32 Z M442.32,69.72 L428.16,69.72 L426,81 L420.24,81 L430.96,25 L440,25 L450.72,81 L444.48,81 L442.32,69.72 Z M435.12,32.04 L428.96,64.36 L441.44,64.36 L435.12,32.04 Z M480.16,75.32 L480.16,81 L454.72,81 L454.72,75.4 L473.92,30.68 L455.6,30.68 L455.6,25 L480.32,25 L480.32,30.6 L461.04,75.32 L480.16,75.32 Z M506.4,69.72 L492.24,69.72 L490.08,81 L484.32,81 L495.04,25 L504.08,25 L514.8,81 L508.56,81 L506.4,69.72 Z M499.2,32.04 L493.04,64.36 L505.52,64.36 L499.2,32.04 Z M519.68,25 L532.16,25 C540.96,25 544.64,29.48 544.64,37.8 L544.64,42.36 C544.64,48.52 542.48,52.36 537.68,53.88 C542.8,55.4 544.72,59.56 544.72,65.56 L544.72,74.28 C544.72,76.76 544.8,79.08 545.84,81 L539.52,81 C538.8,79.4 538.48,77.96 538.48,74.2 L538.48,65.4 C538.48,59.08 535.52,57.08 530.32,57.08 L525.92,57.08 L525.92,81 L519.68,81 L519.68,25 Z M525.92,51.4 L530.56,51.4 C535.52,51.4 538.48,49.8 538.48,43.72 L538.48,38.36 C538.48,33.32 536.64,30.68 532,30.68 L525.92,30.68 L525.92,51.4 Z" id="path-8"></path>
        <filter x="-1.0%" y="-7.0%" width="102.5%" height="117.5%" filterUnits="objectBoundingBox" id="filter-9">
            <feOffset dx="1" dy="1" in="SourceAlpha" result="shadowOffsetOuter1"></feOffset>
            <feGaussianBlur stdDeviation="1.5" in="shadowOffsetOuter1" result="shadowBlurOuter1"></feGaussianBlur>
            <feColorMatrix values="0 0 0 0 0   0 0 0 0 0   0 0 0 0 0  0 0 0 0.22303868 0" type="matrix" in="shadowBlurOuter1"></feColorMatrix>
        </filter>
    </defs>
    <g id="Page-1" stroke="none" stroke-width="1" fill="none" fill-rule="evenodd">
        <g id="Group-3" transform="translate(2.000000, 2.000000)">
            <g id="Group-2">
                <g id="Group">
                    <g id="Rectangle">
                        <use fill="black" fill-opacity="1" filter="url(#filter-3)" xlink:href="#path-2"></use>
                        <use fill="url(#linearGradient-1)" fill-rule="evenodd" xlink:href="#path-2"></use>
                    </g>
                    <g id="Combined-Shape" fill-rule="nonzero">
                        <use fill="black" fill-opacity="1" filter="url(#filter-5)" xlink:href="#path-4"></use>
                        <use fill="#FFFFFF" xlink:href="#path-4"></use>
                    </g>
                    <g id="B" fill-rule="nonzero">
                        <use fill="black" fill-opacity="1" filter="url(#filter-7)" xlink:href="#path-6"></use>
                        <use fill="#FFFFFF" xlink:href="#path-6"></use>
                    </g>
                </g>
                <g id="BrandonBazar" fill-rule="nonzero">
                    <use fill="black" fill-opacity="1" filter="url(#filter-9)" xlink:href="#path-8"></use>
                    <use fill="#FFFFFF" xlink:href="#path-8"></use>
                </g>
            </g>
        </g>
    </g>
</svg>